<mxfile host="www.draw.io" modified="2020-02-07T07:39:47.510Z" agent="Mozilla/5.0 (Windows NT 10.0; Win64; x64; rv:72.0) Gecko/20100101 Firefox/72.0" etag="qqdYIgmW4qh1hhu04yHw" version="12.6.5" type="github">
  <diagram id="0UdFoIHzwL4gi_fOD-Wj" name="Page-1">
    <mxGraphModel dx="2858" dy="2299" grid="1" gridSize="10" guides="1" tooltips="1" connect="1" arrows="1" fold="1" page="1" pageScale="1" pageWidth="827" pageHeight="1169" math="0" shadow="0">
      <root>
        <mxCell id="0"/>
        <mxCell id="1" parent="0"/>
        <mxCell id="XW_TOo5zGjaPJLdrF006-4" value="" style="shape=image;html=1;verticalAlign=top;verticalLabelPosition=bottom;labelBackgroundColor=#ffffff;imageAspect=0;aspect=fixed;image=https://cdn1.iconfinder.com/data/icons/material-core/18/theaters-128.png" vertex="1" parent="1">
          <mxGeometry x="-671.5" y="63.5" width="153" height="153" as="geometry"/>
        </mxCell>
        <mxCell id="XW_TOo5zGjaPJLdrF006-13" value="" style="html=1;verticalLabelPosition=bottom;align=center;labelBackgroundColor=#ffffff;verticalAlign=top;strokeWidth=2;strokeColor=#0080F0;shadow=0;dashed=0;shape=mxgraph.ios7.icons.map;" vertex="1" parent="1">
          <mxGeometry x="540" y="230" width="30" height="30" as="geometry"/>
        </mxCell>
        <mxCell id="XW_TOo5zGjaPJLdrF006-14" value="" style="verticalLabelPosition=bottom;shadow=0;dashed=0;align=center;html=1;verticalAlign=top;strokeWidth=1;shape=mxgraph.mockup.misc.map;" vertex="1" parent="1">
          <mxGeometry x="590" y="200" width="70" height="70" as="geometry"/>
        </mxCell>
        <mxCell id="XW_TOo5zGjaPJLdrF006-15" value="Map" style="html=1;strokeColor=none;fillColor=#0079D6;labelPosition=center;verticalLabelPosition=middle;verticalAlign=top;align=center;fontSize=12;outlineConnect=0;spacingTop=-6;fontColor=#FFFFFF;shape=mxgraph.sitemap.map;" vertex="1" parent="1">
          <mxGeometry x="530" y="280" width="120" height="70" as="geometry"/>
        </mxCell>
        <mxCell id="XW_TOo5zGjaPJLdrF006-16" value="" style="shape=image;html=1;verticalAlign=top;verticalLabelPosition=bottom;labelBackgroundColor=#ffffff;imageAspect=0;aspect=fixed;image=https://cdn4.iconfinder.com/data/icons/X-Mac/graphics/png/128/animation.png" vertex="1" parent="1">
          <mxGeometry x="258" y="450" width="128" height="128" as="geometry"/>
        </mxCell>
        <mxCell id="XW_TOo5zGjaPJLdrF006-17" value="" style="shape=image;html=1;verticalAlign=top;verticalLabelPosition=bottom;labelBackgroundColor=#ffffff;imageAspect=0;aspect=fixed;image=https://cdn4.iconfinder.com/data/icons/LUMINA/graphics/png/128/animation.png" vertex="1" parent="1">
          <mxGeometry x="82" y="358" width="128" height="128" as="geometry"/>
        </mxCell>
        <mxCell id="XW_TOo5zGjaPJLdrF006-18" value="gpx" style="text;html=1;strokeColor=none;fillColor=none;align=center;verticalAlign=middle;whiteSpace=wrap;rounded=0;" vertex="1" parent="1">
          <mxGeometry x="188" y="175" width="40" height="20" as="geometry"/>
        </mxCell>
        <mxCell id="XW_TOo5zGjaPJLdrF006-19" value="animator" style="text;html=1;strokeColor=none;fillColor=none;align=center;verticalAlign=middle;whiteSpace=wrap;rounded=0;" vertex="1" parent="1">
          <mxGeometry x="126" y="290" width="40" height="20" as="geometry"/>
        </mxCell>
        <mxCell id="XW_TOo5zGjaPJLdrF006-20" value="" style="shape=image;html=1;verticalAlign=top;verticalLabelPosition=bottom;labelBackgroundColor=#ffffff;imageAspect=0;aspect=fixed;image=https://cdn3.iconfinder.com/data/icons/faticons/32/globe-01-128.png" vertex="1" parent="1">
          <mxGeometry x="462" y="430" width="128" height="128" as="geometry"/>
        </mxCell>
        <mxCell id="XW_TOo5zGjaPJLdrF006-21" value="" style="shape=image;html=1;verticalAlign=top;verticalLabelPosition=bottom;labelBackgroundColor=#ffffff;imageAspect=0;aspect=fixed;image=https://cdn1.iconfinder.com/data/icons/iconnice-vector-icon/31/Vector-icons_77-128.png" vertex="1" parent="1">
          <mxGeometry x="610" y="430" width="128" height="128" as="geometry"/>
        </mxCell>
        <mxCell id="XW_TOo5zGjaPJLdrF006-22" value="" style="shape=image;html=1;verticalAlign=top;verticalLabelPosition=bottom;labelBackgroundColor=#ffffff;imageAspect=0;aspect=fixed;image=https://cdn3.iconfinder.com/data/icons/simple-icon-set-1/524/map2-128.png" vertex="1" parent="1">
          <mxGeometry x="491" y="67" width="128" height="128" as="geometry"/>
        </mxCell>
        <mxCell id="XW_TOo5zGjaPJLdrF006-23" value="" style="shape=image;html=1;verticalAlign=top;verticalLabelPosition=bottom;labelBackgroundColor=#ffffff;imageAspect=0;aspect=fixed;image=https://cdn2.iconfinder.com/data/icons/e-commerce-glyph-2/614/6_-_Around_The_World-128.png" vertex="1" parent="1">
          <mxGeometry x="380" y="52" width="128" height="128" as="geometry"/>
        </mxCell>
        <mxCell id="XW_TOo5zGjaPJLdrF006-24" value="" style="html=1;aspect=fixed;strokeColor=none;shadow=0;align=center;verticalAlign=top;fillColor=#3B8DF1;shape=mxgraph.gcp2.globe_world" vertex="1" parent="1">
          <mxGeometry x="270" y="52" width="100" height="95" as="geometry"/>
        </mxCell>
        <mxCell id="XW_TOo5zGjaPJLdrF006-26" value="" style="image;html=1;labelBackgroundColor=#ffffff;image=img/lib/clip_art/general/Earth_globe_128x128.png" vertex="1" parent="1">
          <mxGeometry x="634" y="63.5" width="80" height="80" as="geometry"/>
        </mxCell>
        <mxCell id="XW_TOo5zGjaPJLdrF006-27" value="" style="shape=image;html=1;verticalAlign=top;verticalLabelPosition=bottom;labelBackgroundColor=#ffffff;imageAspect=0;aspect=fixed;image=https://cdn3.iconfinder.com/data/icons/streamline-icon-set-free-pack/48/Streamline-19-128.png" vertex="1" parent="1">
          <mxGeometry x="680" y="141" width="128" height="128" as="geometry"/>
        </mxCell>
        <mxCell id="XW_TOo5zGjaPJLdrF006-28" value="" style="shape=image;html=1;verticalAlign=top;verticalLabelPosition=bottom;labelBackgroundColor=#ffffff;imageAspect=0;aspect=fixed;image=https://cdn3.iconfinder.com/data/icons/wpzoom-developer-icon-set/500/59-128.png" vertex="1" parent="1">
          <mxGeometry x="348" y="290" width="128" height="128" as="geometry"/>
        </mxCell>
        <mxCell id="XW_TOo5zGjaPJLdrF006-29" value="" style="shape=image;html=1;verticalAlign=top;verticalLabelPosition=bottom;labelBackgroundColor=#ffffff;imageAspect=0;aspect=fixed;image=https://cdn4.iconfinder.com/data/icons/social-media-2231/512/105-Earth_googleearth_google_earth_social-128.png" vertex="1" parent="1">
          <mxGeometry x="210" y="230" width="128" height="128" as="geometry"/>
        </mxCell>
        <mxCell id="XW_TOo5zGjaPJLdrF006-30" value="" style="shape=image;html=1;verticalAlign=top;verticalLabelPosition=bottom;labelBackgroundColor=#ffffff;imageAspect=0;aspect=fixed;image=https://cdn4.iconfinder.com/data/icons/vectortown-endangered-species/32/Panther_Leopard-128.png" vertex="1" parent="1">
          <mxGeometry x="60" y="39.5" width="128" height="128" as="geometry"/>
        </mxCell>
        <mxCell id="XW_TOo5zGjaPJLdrF006-31" value="" style="shape=image;html=1;verticalAlign=top;verticalLabelPosition=bottom;labelBackgroundColor=#ffffff;imageAspect=0;aspect=fixed;image=https://cdn4.iconfinder.com/data/icons/zoo-line-welcome-to-zootopia/512/kangaroo-128.png" vertex="1" parent="1">
          <mxGeometry x="90" y="-228" width="128" height="128" as="geometry"/>
        </mxCell>
        <mxCell id="XW_TOo5zGjaPJLdrF006-32" value="" style="shape=image;html=1;verticalAlign=top;verticalLabelPosition=bottom;labelBackgroundColor=#ffffff;imageAspect=0;aspect=fixed;image=https://cdn4.iconfinder.com/data/icons/standard-free-icons/139/Location01-128.png" vertex="1" parent="1">
          <mxGeometry x="349" y="550" width="128" height="128" as="geometry"/>
        </mxCell>
        <mxCell id="XW_TOo5zGjaPJLdrF006-33" value="" style="shape=image;html=1;verticalAlign=top;verticalLabelPosition=bottom;labelBackgroundColor=#ffffff;imageAspect=0;aspect=fixed;image=https://cdn2.iconfinder.com/data/icons/camping-nature/24/camping-nature-16-128.png" vertex="1" parent="1">
          <mxGeometry x="60" y="530" width="128" height="128" as="geometry"/>
        </mxCell>
        <mxCell id="XW_TOo5zGjaPJLdrF006-34" value="f" style="shape=image;html=1;verticalAlign=top;verticalLabelPosition=bottom;labelBackgroundColor=#ffffff;imageAspect=0;aspect=fixed;image=https://cdn0.iconfinder.com/data/icons/basic-web-ui-elements/276/tracker-128.png" vertex="1" parent="1">
          <mxGeometry x="210" y="578" width="128" height="128" as="geometry"/>
        </mxCell>
        <mxCell id="XW_TOo5zGjaPJLdrF006-35" value="" style="shape=image;html=1;verticalAlign=top;verticalLabelPosition=bottom;labelBackgroundColor=#ffffff;imageAspect=0;aspect=fixed;image=https://cdn4.iconfinder.com/data/icons/logos-and-brands-2/468/332_Swift_logo-128.png" vertex="1" parent="1">
          <mxGeometry x="188" width="68" height="68" as="geometry"/>
        </mxCell>
        <mxCell id="XW_TOo5zGjaPJLdrF006-36" value="" style="shape=image;html=1;verticalAlign=top;verticalLabelPosition=bottom;labelBackgroundColor=#ffffff;imageAspect=0;aspect=fixed;image=https://cdn3.iconfinder.com/data/icons/meteocons/512/wind-symbol-128.png" vertex="1" parent="1">
          <mxGeometry x="522" y="-20" width="128" height="128" as="geometry"/>
        </mxCell>
        <mxCell id="XW_TOo5zGjaPJLdrF006-37" value="" style="shape=image;html=1;verticalAlign=top;verticalLabelPosition=bottom;labelBackgroundColor=#ffffff;imageAspect=0;aspect=fixed;image=https://cdn4.iconfinder.com/data/icons/small-n-flat/24/map-128.png" vertex="1" parent="1">
          <mxGeometry x="50" y="-160" width="128" height="128" as="geometry"/>
        </mxCell>
        <mxCell id="XW_TOo5zGjaPJLdrF006-38" value="" style="shape=image;html=1;verticalAlign=top;verticalLabelPosition=bottom;labelBackgroundColor=#ffffff;imageAspect=0;aspect=fixed;image=https://cdn0.iconfinder.com/data/icons/small-n-flat/24/678074-map-128.png" vertex="1" parent="1">
          <mxGeometry x="526" y="640" width="128" height="128" as="geometry"/>
        </mxCell>
        <mxCell id="XW_TOo5zGjaPJLdrF006-39" value="" style="shape=image;html=1;verticalAlign=top;verticalLabelPosition=bottom;labelBackgroundColor=#ffffff;imageAspect=0;aspect=fixed;image=https://cdn3.iconfinder.com/data/icons/iconic-1/32/map_pin_alt-128.png" vertex="1" parent="1">
          <mxGeometry x="-20" y="310" width="128" height="128" as="geometry"/>
        </mxCell>
        <mxCell id="XW_TOo5zGjaPJLdrF006-40" value="" style="shape=image;html=1;verticalAlign=top;verticalLabelPosition=bottom;labelBackgroundColor=#ffffff;imageAspect=0;aspect=fixed;image=https://cdn4.iconfinder.com/data/icons/twitter-29/512/157_Twitter_Location_Map-128.png" vertex="1" parent="1">
          <mxGeometry x="-108" y="402" width="128" height="128" as="geometry"/>
        </mxCell>
        <mxCell id="XW_TOo5zGjaPJLdrF006-41" value="" style="shape=image;html=1;verticalAlign=top;verticalLabelPosition=bottom;labelBackgroundColor=#ffffff;imageAspect=0;aspect=fixed;image=https://cdn0.iconfinder.com/data/icons/map-location-solid-style/91/Map_-_Location_Solid_Style_19-128.png" vertex="1" parent="1">
          <mxGeometry x="-108" y="600" width="128" height="128" as="geometry"/>
        </mxCell>
        <mxCell id="XW_TOo5zGjaPJLdrF006-42" value="" style="shape=image;html=1;verticalAlign=top;verticalLabelPosition=bottom;labelBackgroundColor=#ffffff;imageAspect=0;aspect=fixed;image=https://cdn4.iconfinder.com/data/icons/facebook-ui-twotone/48/Paul-24-128.png" vertex="1" parent="1">
          <mxGeometry x="-170" y="322" width="128" height="128" as="geometry"/>
        </mxCell>
        <mxCell id="XW_TOo5zGjaPJLdrF006-43" value="" style="shape=image;html=1;verticalAlign=top;verticalLabelPosition=bottom;labelBackgroundColor=#ffffff;imageAspect=0;aspect=fixed;image=https://cdn4.iconfinder.com/data/icons/wirecons-free-vector-icons/32/pin-128.png" vertex="1" parent="1">
          <mxGeometry x="-170" y="490" width="128" height="128" as="geometry"/>
        </mxCell>
        <mxCell id="XW_TOo5zGjaPJLdrF006-44" value="" style="shape=image;html=1;verticalAlign=top;verticalLabelPosition=bottom;labelBackgroundColor=#ffffff;imageAspect=0;aspect=fixed;image=https://cdn2.iconfinder.com/data/icons/social-hand-drawn-icons/64/social_8-128.png" vertex="1" parent="1">
          <mxGeometry x="-128" y="194" width="128" height="128" as="geometry"/>
        </mxCell>
        <mxCell id="XW_TOo5zGjaPJLdrF006-45" value="" style="shape=mxgraph.signs.animals.deer_2;html=1;fillColor=#000000;strokeColor=none;verticalLabelPosition=bottom;verticalAlign=top;align=center;" vertex="1" parent="1">
          <mxGeometry x="-92" y="40" width="97" height="97" as="geometry"/>
        </mxCell>
        <mxCell id="XW_TOo5zGjaPJLdrF006-46" value="" style="shape=image;html=1;verticalAlign=top;verticalLabelPosition=bottom;labelBackgroundColor=#ffffff;imageAspect=0;aspect=fixed;image=https://cdn0.iconfinder.com/data/icons/easter-2030/24/Bunny_rabit_easter_animal-128.png" vertex="1" parent="1">
          <mxGeometry x="-470" y="-170" width="128" height="128" as="geometry"/>
        </mxCell>
        <mxCell id="XW_TOo5zGjaPJLdrF006-47" value="" style="shape=image;html=1;verticalAlign=top;verticalLabelPosition=bottom;labelBackgroundColor=#ffffff;imageAspect=0;aspect=fixed;image=https://cdn1.iconfinder.com/data/icons/circus-element/64/Monkey-animal-show-circus-128.png" vertex="1" parent="1">
          <mxGeometry x="-243.07" y="13" width="128" height="128" as="geometry"/>
        </mxCell>
        <mxCell id="XW_TOo5zGjaPJLdrF006-48" value="" style="shape=image;html=1;verticalAlign=top;verticalLabelPosition=bottom;labelBackgroundColor=#ffffff;imageAspect=0;aspect=fixed;image=https://cdn2.iconfinder.com/data/icons/icontober/64/Inkcontober_Filthy_FOx-128.png" vertex="1" parent="1">
          <mxGeometry x="-350" y="330" width="128" height="128" as="geometry"/>
        </mxCell>
        <mxCell id="XW_TOo5zGjaPJLdrF006-49" value="" style="shape=image;html=1;verticalAlign=top;verticalLabelPosition=bottom;labelBackgroundColor=#ffffff;imageAspect=0;aspect=fixed;image=https://cdn3.iconfinder.com/data/icons/street-food-and-food-trucker-1/64/shrimp-prawn-seafood-animal-marine-128.png;rotation=-5;" vertex="1" parent="1">
          <mxGeometry x="-695.9300000000001" y="30.069999999999993" width="201.85" height="201.85" as="geometry"/>
        </mxCell>
        <mxCell id="XW_TOo5zGjaPJLdrF006-50" value="" style="shape=image;html=1;verticalAlign=top;verticalLabelPosition=bottom;labelBackgroundColor=#ffffff;imageAspect=0;aspect=fixed;image=https://cdn2.iconfinder.com/data/icons/icontober/64/Inkcontober_GIrrafe-128.png" vertex="1" parent="1">
          <mxGeometry x="20" y="-170" width="128" height="128" as="geometry"/>
        </mxCell>
        <mxCell id="XW_TOo5zGjaPJLdrF006-51" value="" style="shape=image;html=1;verticalAlign=top;verticalLabelPosition=bottom;labelBackgroundColor=#ffffff;imageAspect=0;aspect=fixed;image=https://cdn2.iconfinder.com/data/icons/icontober/64/Inkcontober_Jellyfish-128.png" vertex="1" parent="1">
          <mxGeometry x="-550" y="390" width="128" height="128" as="geometry"/>
        </mxCell>
        <mxCell id="XW_TOo5zGjaPJLdrF006-52" value="" style="shape=image;html=1;verticalAlign=top;verticalLabelPosition=bottom;labelBackgroundColor=#ffffff;imageAspect=0;aspect=fixed;image=https://cdn3.iconfinder.com/data/icons/animals-105/150/icon_animal_tigre-128.png" vertex="1" parent="1">
          <mxGeometry x="-371.07" y="108" width="128" height="128" as="geometry"/>
        </mxCell>
        <mxCell id="XW_TOo5zGjaPJLdrF006-53" value="" style="shape=image;html=1;verticalAlign=top;verticalLabelPosition=bottom;labelBackgroundColor=#ffffff;imageAspect=0;aspect=fixed;image=https://cdn3.iconfinder.com/data/icons/animals-105/150/icon_animal_lobo-128.png" vertex="1" parent="1">
          <mxGeometry x="-671.5" y="546" width="128" height="128" as="geometry"/>
        </mxCell>
        <mxCell id="XW_TOo5zGjaPJLdrF006-54" value="" style="shape=image;html=1;verticalAlign=top;verticalLabelPosition=bottom;labelBackgroundColor=#ffffff;imageAspect=0;aspect=fixed;image=https://cdn3.iconfinder.com/data/icons/animals-105/150/icon_animal_touro-128.png" vertex="1" parent="1">
          <mxGeometry x="-700" y="310" width="128" height="128" as="geometry"/>
        </mxCell>
        <mxCell id="XW_TOo5zGjaPJLdrF006-56" value="" style="shape=image;html=1;verticalAlign=top;verticalLabelPosition=bottom;labelBackgroundColor=#ffffff;imageAspect=0;aspect=fixed;image=https://cdn0.iconfinder.com/data/icons/free-android-icons-animals/24/running_rabbit-24.png" vertex="1" parent="1">
          <mxGeometry x="-350" y="482" width="144" height="144" as="geometry"/>
        </mxCell>
      </root>
    </mxGraphModel>
  </diagram>
</mxfile>
